<?xml version="1.0" encoding="UTF-8"?>
<svg version="1.1" xmlns="http://www.w3.org/2000/svg" width="32" height="32">
<path d="M0 0 C10.56 0 21.12 0 32 0 C32 10.56 32 21.12 32 32 C21.44 32 10.88 32 0 32 C0 21.44 0 10.88 0 0 Z " fill="#332CFA" transform="translate(0,0)"/>
<path d="M0 0 C5.71428571 0.71428571 5.71428571 0.71428571 7 2 C8.51469448 2.23192865 10.03754562 2.41215238 11.5625 2.5625 C12.80193359 2.68818359 12.80193359 2.68818359 14.06640625 2.81640625 C14.70449219 2.87699219 15.34257812 2.93757812 16 3 C15.01 4.485 15.01 4.485 14 6 C14.33 6.99 14.66 7.98 15 9 C12.03 9 9.06 9 6 9 C6.78375 9.70125 7.5675 10.4025 8.375 11.125 C12.83366455 16.00829927 13 19.40678152 13 26 C5.41 26 -2.18 26 -10 26 C-10 17 -10 17 -7.6875 14 C-5 12 -5 12 -2 11 C-2 10.34 -2 9.68 -2 9 C-4.97 9 -7.94 9 -11 9 C-11 7.02 -11 5.04 -11 3 C-10.28972656 2.86722656 -9.57945313 2.73445312 -8.84765625 2.59765625 C-7.92855469 2.42105469 -7.00945313 2.24445312 -6.0625 2.0625 C-4.68771484 1.80146484 -4.68771484 1.80146484 -3.28515625 1.53515625 C-1.04710156 1.22285012 -1.04710156 1.22285012 0 0 Z " fill="#101445" transform="translate(14,6)"/>
<path d="M0 0 C1.65 0 3.3 0 5 0 C5 10.56 5 21.12 5 32 C3.35 32 1.7 32 0 32 C-0.12955078 30.87851562 -0.12955078 30.87851562 -0.26171875 29.734375 C-1.01173154 23.42280569 -1.01173154 23.42280569 -4.625 18.4375 C-5.40875 17.963125 -6.1925 17.48875 -7 17 C-7 16.34 -7 15.68 -7 15 C-4.03 15 -1.06 15 2 15 C1.34 13.68 0.68 12.36 0 11 C0.66 10.67 1.32 10.34 2 10 C-0.64 9.67 -3.28 9.34 -6 9 C-6 8.67 -6 8.34 -6 8 C-4.02 8 -2.04 8 0 8 C0 5.36 0 2.72 0 0 Z " fill="#1D1992" transform="translate(27,0)"/>
<path d="M0 0 C1.32 0 2.64 0 4 0 C4 2.64 4 5.28 4 8 C5.32 8.33 6.64 8.66 8 9 C6.35 9 4.7 9 3 9 C3.2784375 9.928125 3.2784375 9.928125 3.5625 10.875 C4 13 4 13 3 15 C7.455 14.505 7.455 14.505 12 14 C12 15.32 12 16.64 12 18 C10.5459375 18.680625 10.5459375 18.680625 9.0625 19.375 C5.92920418 20.65786221 5.92920418 20.65786221 5 23 C4.77532169 24.53668865 4.59203195 26.07968054 4.4375 27.625 C4.35371094 28.44226563 4.26992187 29.25953125 4.18359375 30.1015625 C4.12300781 30.72804688 4.06242188 31.35453125 4 32 C2.68 32 1.36 32 0 32 C0 21.44 0 10.88 0 0 Z " fill="#1D1992" transform="translate(0,0)"/>
<path d="M0 0 C2.00720923 0.28674418 4.0085944 0.61866701 6 1 C6.33 1.99 6.66 2.98 7 4 C7.99 4 8.98 4 10 4 C10 4.99 10 5.98 10 7 C7.69 7 5.38 7 3 7 C3 7.66 3 8.32 3 9 C1.02 9.99 1.02 9.99 -1 11 C-1.33 10.34 -1.66 9.68 -2 9 C-4.97 9 -7.94 9 -11 9 C-11 7.02 -11 5.04 -11 3 C-10.28972656 2.86722656 -9.57945313 2.73445312 -8.84765625 2.59765625 C-7.92855469 2.42105469 -7.00945313 2.24445312 -6.0625 2.0625 C-4.68771484 1.80146484 -4.68771484 1.80146484 -3.28515625 1.53515625 C-1.04710156 1.22285012 -1.04710156 1.22285012 0 0 Z " fill="#111545" transform="translate(14,6)"/>
<path d="M0 0 C2.97 0.33 5.94 0.66 9 1 C8.67 6.28 8.34 11.56 8 17 C7.67 17 7.34 17 7 17 C6.87044922 15.87851562 6.87044922 15.87851562 6.73828125 14.734375 C5.98826846 8.42280569 5.98826846 8.42280569 2.375 3.4375 C1.59125 2.963125 0.8075 2.48875 0 2 C0 1.34 0 0.68 0 0 Z " fill="#241EAF" transform="translate(20,15)"/>
<path d="M0 0 C-0.33 0.99 -0.66 1.98 -1 3 C-2.4540625 3.5878125 -2.4540625 3.5878125 -3.9375 4.1875 C-7.07427376 5.63614649 -7.07427376 5.63614649 -7.83984375 7.96875 C-8.31987445 9.95895026 -8.66880236 11.97969441 -9 14 C-9.33 14 -9.66 14 -10 14 C-10 9.71 -10 5.42 -10 1 C-3.25 -1.25 -3.25 -1.25 0 0 Z " fill="#241FB1" transform="translate(13,15)"/>
<path d="M0 0 C2.97 0 5.94 0 9 0 C8.01 1.485 8.01 1.485 7 3 C7.33 3.99 7.66 4.98 8 6 C4.7 5.67 1.4 5.34 -2 5 C-1.34 4.01 -0.68 3.02 0 2 C0 2.66 0 3.32 0 4 C0.99 4 1.98 4 3 4 C3 3.01 3 2.02 3 1 C2.01 0.67 1.02 0.34 0 0 Z " fill="#0C103B" transform="translate(21,9)"/>
<path d="M0 0 C1.32 0 2.64 0 4 0 C4 2.64 4 5.28 4 8 C2.35 8 0.7 8 -1 8 C-0.67 5.36 -0.34 2.72 0 0 Z " fill="#2D27DE" transform="translate(23,0)"/>
<path d="M0 0 C1.32 0 2.64 0 4 0 C4 2.64 4 5.28 4 8 C2.68 8 1.36 8 0 8 C0 5.36 0 2.72 0 0 Z " fill="#2923CC" transform="translate(4,0)"/>
<path d="M0 0 C1.65 0 3.3 0 5 0 C5.33 1.65 5.66 3.3 6 5 C5.01 5 4.02 5 3 5 C3 5.66 3 6.32 3 7 C2.34 7 1.68 7 1 7 C0.67 4.69 0.34 2.38 0 0 Z " fill="#40436A" transform="translate(14,8)"/>
<path d="M0 0 C-0.33 0.99 -0.66 1.98 -1 3 C-2.98 3.33 -4.96 3.66 -7 4 C-6.625 2.0625 -6.625 2.0625 -6 0 C-3.50907189 -1.24546405 -2.58919267 -0.7767578 0 0 Z " fill="#2D28D9" transform="translate(13,15)"/>
<path d="M0 0 C2.97 0.495 2.97 0.495 6 1 C6.33 1.99 6.66 2.98 7 4 C7.99 4 8.98 4 10 4 C10 4.99 10 5.98 10 7 C9.01 7 8.02 7 7 7 C7 6.34 7 5.68 7 5 C6.34 4.67 5.68 4.34 5 4 C5 3.67 5 3.34 5 3 C3.35 2.67 1.7 2.34 0 2 C0 1.34 0 0.68 0 0 Z " fill="#131653" transform="translate(14,6)"/>
<path d="M0 0 C0.99 0 1.98 0 3 0 C3 2.64 3 5.28 3 8 C2.01 8 1.02 8 0 8 C0 5.36 0 2.72 0 0 Z " fill="#231DAD" transform="translate(27,0)"/>
<path d="M0 0 C2.31 0.33 4.62 0.66 7 1 C6.67 1.99 6.34 2.98 6 4 C4.35 3.67 2.7 3.34 1 3 C0.67 2.01 0.34 1.02 0 0 Z " fill="#2F29E4" transform="translate(20,15)"/>
</svg>
